<svg xmlns="http://www.w3.org/2000/svg" width="2000.0" height="740.5367812156983" ><g transform="scale(0.980923971525739)"><path id="('r111a', 'j1')" d="M 263.32,299.616 L 332.772,299.616" stroke-width="2" stroke="#C83737" fill="transparent" /><path id="('r111b', 'j1')" d="M 332.772,221.203 L 332.772,299.616" stroke-width="2" stroke="#C83737" fill="transparent" /><path id="('j1', 'r111c')" d="M 332.772,299.616 L 408.945,299.616" stroke-width="2" stroke="#C83737" fill="transparent" /><path id="('r111c', 'j2')" d="M 408.945,299.616 L 488.28,299.616 L 500.832,278.332 L 532.165,278.332 L 532.165,278.332" stroke-width="2" stroke="#C83737" fill="transparent" /><path id="('j2', 'r111')" d="M 532.165,278.332 L 575.052,278.332" stroke-width="2" stroke="#C83737" fill="transparent" /><path id="('j2', 'j3')" d="M 532.165,278.332 L 532.165,377.469" stroke-width="2" stroke="#C83737" fill="transparent" /><path id="('j3', 'j5')" d="M 532.165,377.469 L 652.586,347.784" stroke-width="2" stroke="#C83737" fill="transparent" /><path id="('j5', 'j6')" d="M 652.586,347.784 L 653.044,301.53 L 793.169,301.53 L 793.169,347.784 L 793.169,347.784" stroke-width="2" stroke="#C83737" fill="transparent" /><path id="('j6', 'r106-1')" d="M 793.169,347.784 L 820.266,375.555 L 1019.447,375.555 L 1019.447,375.555" stroke-width="2" stroke="#C83737" fill="transparent" /><circle id="r111a" cx="263.32" cy="299.616" r="2" fill="#005000"/><circle id="j1" cx="332.772" cy="299.616" r="2" fill="#500000"/><circle id="r111b" cx="332.772" cy="221.203" r="2" fill="#005000"/><circle id="r111c" cx="408.945" cy="299.616" r="2" fill="#005000"/><circle id="j2" cx="532.165" cy="278.332" r="2" fill="#500000"/><circle id="r111" cx="575.052" cy="278.332" r="2" fill="#005000"/><circle id="j3" cx="532.165" cy="377.469" r="2" fill="#500000"/><circle id="j5" cx="652.586" cy="347.784" r="2" fill="#500000"/><circle id="j6" cx="793.169" cy="347.784" r="2" fill="#500000"/><circle id="r106-1" cx="1019.447" cy="375.555" r="2" fill="#005000"/></g></svg>